<svg id="Layer_1" data-name="Layer 1" xmlns="http://www.w3.org/2000/svg" viewBox="0 0 1000 1000"><defs><style>.cls-1{fill:#557a1b;}.cls-2{fill:#72b01d;stroke:#557a1b;stroke-miterlimit:10;}</style></defs><title>Artboard 1</title><path class="cls-1" d="M411.64,903.93a12.64,12.64,0,0,1-.67,4.87,2.38,2.38,0,0,1-2.33,1.46q-3.12,0-3.12-5.73V880.37h-4.87v24.08c0,3.87.63,6.69,1.89,8.44s3.3,2.63,6.1,2.63,4.82-.89,6-2.67,1.83-4.69,1.83-8.72V880.37h-4.87Zm335-.31h-.12l-3.66-23.13h-2.52l-3.51,23h-.13l-3.67-23h-4.55L735,915h3.25l3.26-21.15h.12L744.82,915h3.46l6.49-34.55h-4.64ZM386.18,879.9h-.12q-3.58,0-6,3.56t-2.4,14.5q0,8.94,2.1,13.25t6.46,4.31q3.48,0,5.87-3.6t2.39-13.72q0-10.79-2.29-14.54T386.18,879.9Zm2.46,28c-.42,1.56-1.24,2.35-2.46,2.35s-2-.78-2.45-2.33-.74-5.83-.74-12.81a30.52,30.52,0,0,1,.66-7.63c.44-1.5,1.26-2.25,2.47-2.25s2.1,1,2.52,2.88.63,5.83.63,11.7A35.56,35.56,0,0,1,388.64,907.91Zm-24.22-3.64h-.12L360,880.49h-4.92L362.18,912l-4.29,18.37h4.29l12.25-49.85h-4.67ZM331.4,880q-8.47,0-8.47,18.54,0,17,8.17,17,7.59,0,7.8-12.14h-4.47a17,17,0,0,1-.63,5.22,2.25,2.25,0,0,1-2.28,1.66c-1.46,0-2.39-1-2.78-2.87a45.52,45.52,0,0,1-.59-8.48h11.06v-2.49q0-10-2.3-13.24A6.68,6.68,0,0,0,331.4,880Zm-3.25,13.91a31.13,31.13,0,0,1,.62-7.25c.41-1.57,1.26-2.35,2.57-2.35,1.1,0,1.86.74,2.28,2.23a30.26,30.26,0,0,1,.63,7.37ZM312.69,884h-.12a10.92,10.92,0,0,0-2.06-3,4.14,4.14,0,0,0-3-.95q-2.86,0-4.46,3.1t-1.59,14q0,12,1.74,15.25t4.25,3.21q3.66,0,5.1-5.1h.12v10.35q0,4.23-3.17,4.23c-2.06,0-3.16-1.88-3.32-5.65h-4.72c0,3.95.6,6.67,1.86,8.14s3.36,2.22,6.3,2.22c2.76,0,4.76-.82,6-2.45s1.89-4.25,1.89-7.83V880.49h-4.86Zm-.62,23.11c-.4,1.64-1.18,2.47-2.31,2.47-1.38,0-2.24-1-2.59-3.13a72.77,72.77,0,0,1-.52-10.55,33,33,0,0,1,.72-8.16c.47-1.7,1.27-2.55,2.39-2.55s2,.87,2.37,2.63a66.69,66.69,0,0,1,.56,11A38.8,38.8,0,0,1,312.07,907.08Zm-65.91-22.79H246A12,12,0,0,0,243.9,881a3.66,3.66,0,0,0-2.71-1c-2.38,0-4.05,1.43-5,4.29s-1.47,7.53-1.47,14q0,11,1.95,14.09c1.3,2.1,2.79,3.15,4.49,3.15q3,0,4.88-4.67h.15V915h4.93V880.49h-4.93Zm-.62,22.61c-.42,2-1.25,3-2.5,3s-2.12-1-2.48-3.06a66.54,66.54,0,0,1-.55-10.38,35,35,0,0,1,.7-8.58c.46-1.58,1.3-2.37,2.51-2.37s2,.85,2.38,2.55a46.44,46.44,0,0,1,.56,8.8A55.5,55.5,0,0,1,245.54,906.9Zm-23.6-42.22L216.49,900h-.12l-5.32-35.3h-4.47L202.83,915h4.82l2-32.21h.16L214.75,915H218l5.22-32.21h.12L225.24,915H230l-3.61-50.36Zm45.79,15.22c-2.15,0-3.85,1.27-5.11,3.79h-.12v-3.32h-5V915h4.92v-25.1a7.16,7.16,0,0,1,.83-3.73,2.51,2.51,0,0,1,2.23-1.37q3.08,0,3.07,5.1V915h4.86v-27Q273.43,879.91,267.73,879.9Zm23.36,4.39h-.15a12,12,0,0,0-2.11-3.28,3.66,3.66,0,0,0-2.71-1c-2.38,0-4.05,1.43-5,4.29s-1.47,7.53-1.47,14q0,11,1.95,14.09c1.3,2.1,2.79,3.15,4.49,3.15,2,0,3.62-1.56,4.88-4.67h.15V915H296V880.49h-4.93Zm-.62,22.61c-.42,2-1.25,3-2.5,3s-2.12-1-2.48-3.06a66.54,66.54,0,0,1-.55-10.38,35.67,35.67,0,0,1,.69-8.58q.71-2.37,2.52-2.37c1.21,0,2,.85,2.38,2.55a47.32,47.32,0,0,1,.56,8.8A56.45,56.45,0,0,1,290.47,906.9Zm503.68-26.41-5.34,23.78h-.12l-4.32-23.78h-4.92L786.57,912l-4.29,18.37h4.29l12.26-49.85Zm-24.4,3.8h-.15a11.75,11.75,0,0,0-2.11-3.28,3.66,3.66,0,0,0-2.71-1q-3.56,0-5,4.29t-1.47,14q0,11,2,14.09c1.3,2.1,2.79,3.15,4.49,3.15q3,0,4.88-4.67h.15V915h4.93V880.49h-4.93Zm-.62,22.61c-.42,2-1.25,3-2.5,3s-2.12-1-2.48-3.06a66.54,66.54,0,0,1-.55-10.38,35,35,0,0,1,.7-8.58c.46-1.58,1.3-2.37,2.51-2.37s2,.85,2.38,2.55a46.44,46.44,0,0,1,.56,8.8A55.5,55.5,0,0,1,769.13,906.9Zm-63.08-21.31h-.12v-5.1h-5V915h5V894.33c0-3.64.48-6,1.45-7s2.57-1.62,4.83-1.7v-5.53l-.33-.08Q708.22,880,706.05,885.59ZM521.2,880a3.82,3.82,0,0,0-2.66,1,12.31,12.31,0,0,0-2.32,3.28h-.12v-3.8h-4.81v49.85h4.93V911.29h.12a14.36,14.36,0,0,0,2.49,3.5,3.63,3.63,0,0,0,2.43.84q3.3,0,4.85-3.81t1.55-14.31q0-9.3-1.47-13.42T521.2,880Zm.48,27.37c-.5,1.81-1.34,2.71-2.52,2.71-1.34,0-2.18-1-2.51-3.17a77.5,77.5,0,0,1-.49-10.53,38.57,38.57,0,0,1,.63-8.41c.42-1.65,1.21-2.48,2.37-2.48s2.12,1,2.58,3a50.75,50.75,0,0,1,.69,10.08A36.64,36.64,0,0,1,521.68,907.35Zm40.46-36.27h-4.93v9.41h-3.15v5.1h3.15V915h4.93V885.59h3.15v-5.1h-3.15ZM541.75,880q-8.47,0-8.47,18.54,0,17,8.17,17,7.59,0,7.8-12.14h-4.47a17,17,0,0,1-.63,5.22,2.25,2.25,0,0,1-2.28,1.66c-1.47,0-2.39-1-2.78-2.87a45.52,45.52,0,0,1-.59-8.48h11v-2.49q0-10-2.29-13.24C545.72,881.05,543.89,880,541.75,880Zm-3.25,13.91a31.13,31.13,0,0,1,.62-7.25c.41-1.57,1.26-2.35,2.57-2.35,1.1,0,1.86.74,2.28,2.23a30.26,30.26,0,0,1,.63,7.37ZM570.19,915h4.86V880.49h-4.86Zm2.46-48.66a2.34,2.34,0,0,0-1.91,1.07,4,4,0,0,0-.79,2.49,4.1,4.1,0,0,0,.78,2.51,2.27,2.27,0,0,0,3.83,0,4.35,4.35,0,0,0,0-5A2.34,2.34,0,0,0,572.65,866.38ZM589.86,880q-8.48,0-8.47,18.54,0,17,8.17,17,7.59,0,7.81-12.14h-4.48a17,17,0,0,1-.63,5.22,2.25,2.25,0,0,1-2.28,1.66c-1.46,0-2.39-1-2.78-2.87a45.52,45.52,0,0,1-.59-8.48h11.06v-2.49q0-10-2.3-13.24A6.68,6.68,0,0,0,589.86,880Zm-3.25,13.91a31.13,31.13,0,0,1,.62-7.25c.41-1.57,1.27-2.35,2.57-2.35,1.1,0,1.86.74,2.28,2.23a30.26,30.26,0,0,1,.63,7.37Zm-158.45-8.3H428v-5.1h-5V915h5V894.33c0-3.64.48-6,1.44-7s2.58-1.62,4.84-1.7v-5.53L434,880C431.55,880,429.6,881.85,428.16,885.59Zm214.15,18.68h-.12l-4.31-23.78H633L640.07,912l-4.29,18.37h4.29l12.26-49.85h-4.68Zm21.76-24.37H664c-2.38,0-4.38,1.19-6,3.56s-2.4,7.21-2.4,14.5q0,8.94,2.1,13.25c1.4,2.87,3.56,4.31,6.46,4.31q3.48,0,5.87-3.6t2.39-13.72q0-10.79-2.28-14.54T664.07,879.9Zm2.46,28c-.42,1.56-1.24,2.35-2.46,2.35s-2-.78-2.45-2.33-.74-5.83-.74-12.81a30.4,30.4,0,0,1,.67-7.63q.66-2.25,2.46-2.25t2.52,2.88q.63,2.89.63,11.7A35.56,35.56,0,0,1,666.53,907.91Zm-188-22.32h-.12v-5.1h-5V915h5V894.33c0-3.64.48-6,1.44-7s2.57-1.62,4.83-1.7v-5.53l-.33-.08Q480.66,880,478.5,885.59ZM613.26,896a30.78,30.78,0,0,1-3.27-4.21,5.61,5.61,0,0,1-.79-2.82,4,4,0,0,1,.94-2.81,3.25,3.25,0,0,1,2.51-1,8.57,8.57,0,0,1,3.88,1.22v-5.25a12.08,12.08,0,0,0-4.75-1.31,6.2,6.2,0,0,0-5.12,2.71,10.92,10.92,0,0,0-2.06,6.79,13,13,0,0,0,3.76,9.18A29,29,0,0,1,612,903a6.61,6.61,0,0,1,1.06,3.37,4.21,4.21,0,0,1-.8,2.71,2.67,2.67,0,0,1-2.21,1,10.43,10.43,0,0,1-4.65-1.46V914a11.06,11.06,0,0,0,4.93,1.47,6.54,6.54,0,0,0,5.35-2.69,10.68,10.68,0,0,0,2.1-6.77,11.61,11.61,0,0,0-1-4.93A22.15,22.15,0,0,0,613.26,896ZM461.2,880a3.8,3.8,0,0,0-2.66,1,12.3,12.3,0,0,0-2.33,3.28h-.12v-3.8h-4.8v49.85h4.92V911.29h.12a14.06,14.06,0,0,0,2.5,3.5,3.63,3.63,0,0,0,2.43.84q3.3,0,4.85-3.81t1.54-14.31q0-9.3-1.47-13.42T461.2,880Zm.48,27.37c-.5,1.81-1.34,2.71-2.52,2.71-1.35,0-2.18-1-2.51-3.17a77.06,77.06,0,0,1-.5-10.53,38.57,38.57,0,0,1,.63-8.41c.42-1.65,1.21-2.48,2.38-2.48s2.12,1,2.58,3a50.75,50.75,0,0,1,.69,10.08A36.64,36.64,0,0,1,461.68,907.35Zm34.84-27.45h-.12q-3.58,0-6,3.56T488,898q0,8.94,2.1,13.25t6.46,4.31q3.48,0,5.87-3.6t2.38-13.72q0-10.79-2.28-14.54T496.52,879.9Zm2.46,28c-.42,1.56-1.24,2.35-2.46,2.35s-2-.78-2.45-2.33-.74-5.83-.74-12.81a30.52,30.52,0,0,1,.66-7.63c.44-1.5,1.26-2.25,2.47-2.25s2.1,1,2.52,2.88.63,5.83.63,11.7A35.56,35.56,0,0,1,499,907.91Zm190.56-4a12.6,12.6,0,0,1-.68,4.87,2.38,2.38,0,0,1-2.33,1.46q-3.12,0-3.12-5.73V880.37h-4.87v24.08c0,3.87.64,6.69,1.9,8.44s3.29,2.63,6.09,2.63,4.82-.89,6-2.67,1.83-4.69,1.83-8.72V880.37h-4.86Z"/><path class="cls-1" d="M564.28,596q0,24.27-.81,32.7a23.94,23.94,0,0,1-6.07,14.24q-5.28,5.8-14.38,5.81c-2.3,0-6-.27-11.14-.79v74.64h42.7q28.32,0,42.38-5.67t22.3-20.44a75.66,75.66,0,0,0,9.25-33.1q1-18.33,1-82.43V295.57H564.28Zm370.77,94.46a52.45,52.45,0,0,0-8.91-11.89q-5.19-5.12-9.33-15.93a68.89,68.89,0,0,1-4.15-24.85q-1.24-17.28-1.87-27.55t-1.24-19.44q-.63-9.18-1-18.37-7.87-126.93-116.93-121.53-63.87,3.24-83.77,34.57-11.61,18.36-3.94,37.81t24.26,18.36a26.93,26.93,0,0,0,17.42-7,49.27,49.27,0,0,0,11.19-15.12q4.14-8.64,7.88-17a48.52,48.52,0,0,1,9.54-14.31,20.64,20.64,0,0,1,13.68-6.49q14.1,0,21.57,15.13A35.79,35.79,0,0,1,808,528.4q-8.09,15.39-31.73,23l-5,1.62q-20.75,6.48-30.07,10a272.74,272.74,0,0,0-25.29,11.61q-16,8.1-23.22,16.21T679.2,612.67q-6.23,13.77-7.05,31.59-1.67,40.51,25.71,63.74t66.35,18.91a54.89,54.89,0,0,0,25.29-9.72q15.76-11.36,16.59-25.39.82-10.8-10-11.34-14.1-.54-21.56-11.62a54.42,54.42,0,0,1-9.13-23.5q-5.38-36.18,18.25-56.71a121.83,121.83,0,0,1,13.47-10.54,85,85,0,0,0,13.69-11.34,33.69,33.69,0,0,0,7.26-13.23l.82,84.8q0,14.05.83,24.58a172.12,172.12,0,0,0,3.53,23q2.69,12.42,7.46,20.25a39.57,39.57,0,0,0,13.69,13.24q8.91,5.39,21.35,5.4,71.33,0,72.57-20.53A25.08,25.08,0,0,0,935.05,690.45ZM279.19,295.57h-80l-38,165.9V295.57H76v427h85.24V539.54l34.52,183.05h88.08L230.29,488.38ZM510.42,606.45q-5.82,0-8.71,6.48A82.28,82.28,0,0,1,479.32,641q-13.69,10.82-28.62,11.89-17,1.62-32.55-10t-25.91-33.22q10.35,6.48,29,6.49A106.25,106.25,0,0,0,453.61,611a111.61,111.61,0,0,0,30.47-15.12q14.31-10,22-27.82t5.18-40q-3.72-31.32-31.1-53.75t-80.86-19.17q-47.26,2.7-79.4,40.51t-32.14,95.61q0,59.43,34.62,97.77t84,38.35q41.46,0,73.61-28.36t41.67-74.27q1.65-7.56-2.07-13C517.05,608.26,514,606.45,510.42,606.45ZM376.06,544.87a135.18,135.18,0,0,1,6-47q7.25-23.76,20.52-25.39,12-1.62,19.7,15.94t8.08,39.16q.42,30.25-9.95,47.26t-26.12,17a67.88,67.88,0,0,1-9.95-1.08A176,176,0,0,1,376.06,544.87Z"/><rect class="cls-2" x="73.44" y="754.04" width="865.7" height="77.16"/><path class="cls-2" d="M939.14,237.7v27.63H73.44v-44.4c0-32.31,19.89-58.49,44.44-58.49H286.64l184.45-89a77,77,0,0,1,68.15-.08l185.58,89.1H882C913.54,162.44,939.14,196.13,939.14,237.7Z"/></svg>